<?xml version="1.0" encoding="iso-8859-1"?>
<!-- Generator: Adobe Illustrator 19.1.0, SVG Export Plug-In . SVG Version: 6.00 Build 0)  -->
<svg version="1.1" id="Capa_1" xmlns="http://www.w3.org/2000/svg" xmlns:xlink="http://www.w3.org/1999/xlink" x="0px" y="0px"
	 viewBox="0 0 31.06 31.06" style="enable-background:new 0 0 31.06 31.06;" xml:space="preserve">
<g>
	<path style="fill:#89a404;" d="M19.967,7.254h4.49c2.001,0,3.627-1.626,3.627-3.626S26.458,0,24.457,0h-4.49
		c-5.375,0-9.746,4.373-9.746,9.746v2.492H6.623c-2.011,0-3.647,1.627-3.647,3.627s1.637,3.627,3.647,3.627h3.598v7.94
		c0,2,1.626,3.627,3.627,3.627c2,0,3.627-1.627,3.627-3.627v-7.94h4.736c2.002,0,3.628-1.627,3.628-3.628
		c0-1.999-1.626-3.626-3.628-3.626h-4.736V9.746C17.475,8.373,18.593,7.254,19.967,7.254z M16.589,14.011h5.622
		c1.023,0,1.856,0.831,1.856,1.854c0,1.023-0.833,1.856-1.856,1.856h-5.622c-0.489,0-0.887,0.397-0.887,0.886v8.826
		c0,1.024-0.831,1.855-1.854,1.855s-1.856-0.832-1.856-1.855v-7.94v-0.871c0-0.493-0.4-0.893-0.892-0.893h-0.879H6.623
		c-1.033,0-1.874-0.836-1.874-1.863c0-1.027,0.841-1.863,1.874-1.863h3.598h0.886c0.486,0,0.88-0.392,0.886-0.877
		c0-0.003,0.001-0.007,0.001-0.01c0-0.004-0.001-0.007-0.001-0.011v-0.866V9.746c0-4.397,3.577-7.973,7.975-7.973h4.49
		c1.023,0,1.855,0.831,1.855,1.854c0,1.023-0.832,1.855-1.855,1.855h-4.49c-2.352,0-4.265,1.912-4.265,4.264v3.378
		C15.702,13.613,16.1,14.011,16.589,14.011z"/>
</g>
<g>
</g>
<g>
</g>
<g>
</g>
<g>
</g>
<g>
</g>
<g>
</g>
<g>
</g>
<g>
</g>
<g>
</g>
<g>
</g>
<g>
</g>
<g>
</g>
<g>
</g>
<g>
</g>
<g>
</g>
</svg>
