<?xml version="1.0" encoding="iso-8859-1"?>
<!-- Generator: Adobe Illustrator 18.1.1, SVG Export Plug-In . SVG Version: 6.00 Build 0)  -->
<svg version="1.1" id="Capa_1" xmlns="http://www.w3.org/2000/svg" xmlns:xlink="http://www.w3.org/1999/xlink" x="0px" y="0px"
	 viewBox="0 0 612.018 612.018" style="enable-background:new 0 0 612.018 612.018;" xml:space="preserve">
<g>
	<path fill="#95b2cb" d="M602.832,181.63L432.186,10.984c-12.26-12.26-32.882-12.26-45.142,0l-27.567,27.567c-12.26,12.26-12.26,32.882,0,45.142
		l3.827,3.827L193.367,213.024l-26.787-26.787c-13.748-13.748-37.488-13.748-51.307,0l-26.717,26.787
		c-6.874,6.874-10.701,16.087-10.701,25.228c0,9.921,3.827,18.354,10.701,25.228l94.11,94.11L21.942,518.386
		c-1.559,1.559-3.047,3.827-3.827,6.094L1.249,578.835c-2.268,9.213-1.559,17.575,3.047,22.961
		c2.268,3.047,7.654,8.433,17.575,8.433c3.827,0,7.654-0.78,12.26-2.268l51.307-16.087c2.268-0.78,3.827-1.559,6.094-3.827
		l160.724-160.724l98.008,98.008c6.874,6.874,16.087,10.701,25.228,10.701c9.921,0,18.354-3.827,25.228-10.701l26.787-26.787
		c6.874-6.874,10.701-16.087,10.701-25.228c0-9.921-3.827-18.354-10.701-25.228l-26.787-26.787l125.504-169.937l3.047,3.047
		c6.094,6.094,13.748,9.213,22.961,9.213c8.433,0,16.866-3.047,22.961-9.213l27.567-27.567
		C615.091,214.583,615.091,194.669,602.832,181.63z M21.942,595.701v-13.748l0,0V595.701z M73.958,565.866l-42.803,13.748
		l13.748-42.874l158.457-158.386l29.055,29.055L73.958,565.866z M410.005,473.244c0,2.268-0.78,3.827-2.268,5.386l-26.008,26.008
		c-3.047,3.047-8.433,3.047-10.701,0l-261.85-261c-1.559-1.559-2.268-3.047-2.268-5.386s0.78-3.827,2.268-5.386l26.787-26.787
		c1.559-1.559,3.047-2.268,5.386-2.268c2.268,0,3.827,0.78,5.386,2.268l261,261C409.225,468.638,410.005,470.976,410.005,473.244z
		 M380.879,400.535L213.28,232.937l169.937-125.504l123.236,123.236L380.879,400.535z M582.918,207.709l-27.567,27.567
		c-1.559,1.559-3.827,1.559-5.386,0l-15.307-15.307l0,0L394.698,79.087l0,0l-15.307-15.307c-1.559-1.559-1.559-3.827,0-5.386
		l26.787-27.567c1.559-0.78,2.268-0.78,3.047-0.78s1.559,0,3.047,0.78l170.646,170.646
		C584.477,203.882,584.477,206.15,582.918,207.709z"/>
</g>
<g>
</g>
<g>
</g>
<g>
</g>
<g>
</g>
<g>
</g>
<g>
</g>
<g>
</g>
<g>
</g>
<g>
</g>
<g>
</g>
<g>
</g>
<g>
</g>
<g>
</g>
<g>
</g>
<g>
</g>
</svg>
