<?xml version="1.0" encoding="iso-8859-1"?>
<!-- Generator: Adobe Illustrator 18.1.1, SVG Export Plug-In . SVG Version: 6.00 Build 0)  -->
<svg version="1.1" id="Capa_1" xmlns="http://www.w3.org/2000/svg" xmlns:xlink="http://www.w3.org/1999/xlink" x="0px" y="0px"
	 viewBox="0 0 611.999 611.999" style="enable-background:new 0 0 611.999 611.999;" xml:space="preserve">
<g>
	<g>
		<g>
			<path fill="#ffffff" d="M472.322,235.219c-1.655,0-3.31,0.03-4.97,0.089c-8.125-81.861-77.388-146.003-161.351-146.003
				s-153.226,64.143-161.354,146.003c-1.657-0.06-3.316-0.089-4.97-0.089C62.659,235.219,0,297.878,0,374.897
				s62.659,139.678,139.678,139.678c8.965,0,16.234-7.268,16.234-16.234c0-8.965-7.269-16.234-16.234-16.234
				c-59.113,0-107.209-48.094-107.209-107.209s48.096-107.209,107.209-107.209c5.916,0,11.893,0.495,17.77,1.472
				c4.746,0.789,9.597-0.568,13.243-3.704c3.649-3.136,5.719-7.729,5.652-12.54l-0.011-0.586c-0.005-0.292-0.011-0.584-0.011-0.877
				c0-71.506,58.173-129.679,129.679-129.679S435.68,179.947,435.68,251.453c0,0.276-0.005,0.551-0.011,0.825l-0.008,0.676
				c-0.058,4.804,2.018,9.388,5.666,12.515c3.649,3.128,8.489,4.479,13.235,3.689c5.858-0.975,11.832-1.471,17.759-1.471
				c59.116,0,107.209,48.094,107.209,107.209c0,59.115-48.093,107.209-107.209,107.209c-8.965,0-16.234,7.269-16.234,16.234
				c0,8.967,7.269,16.234,16.234,16.234c77.019,0,139.678-62.659,139.678-139.678C612,297.878,549.341,235.219,472.322,235.219z"/>
			<path fill="#ffffff" d="M228.476,245.689c0-38.489,31.312-69.802,69.802-69.802c8.965,0,16.234-7.269,16.234-16.234s-7.269-16.234-16.234-16.234
				c-56.393,0-102.271,45.878-102.271,102.271c0,8.965,7.266,16.234,16.234,16.234C221.207,261.923,228.476,254.655,228.476,245.689
				z"/>
			<path fill="#ffffff" d="M436.537,394.58h-46.965v-50.074c0-8.967-7.269-16.234-16.234-16.234H238.662c-8.965,0-16.234,7.268-16.234,16.234
				v50.075h-46.962c-7.023,0-13.249,4.513-15.431,11.187s0.172,13.993,5.835,18.143l130.535,95.644
				c2.856,2.093,6.226,3.139,9.597,3.139c3.369,0,6.737-1.046,9.595-3.139l130.535-95.644c5.663-4.149,8.017-11.47,5.835-18.143
				C449.783,399.094,443.557,394.58,436.537,394.58z M306.002,486.332l-80.914-59.284h13.573c8.965,0,16.234-7.269,16.234-16.234
				V360.74h102.208v50.075c0,8.965,7.269,16.234,16.234,16.234h13.573L306.002,486.332z"/>
		</g>
	</g>
</g>
<g>
</g>
<g>
</g>
<g>
</g>
<g>
</g>
<g>
</g>
<g>
</g>
<g>
</g>
<g>
</g>
<g>
</g>
<g>
</g>
<g>
</g>
<g>
</g>
<g>
</g>
<g>
</g>
<g>
</g>
</svg>
