<?xml version="1.0" encoding="UTF-8" ?>
<!DOCTYPE svg PUBLIC "-//W3C//DTD SVG 1.1//EN" "http://www.w3.org/Graphics/SVG/1.1/DTD/svg11.dtd">
<svg width="512pt" height="418pt" viewBox="0 0 512 418" version="1.1" xmlns="http://www.w3.org/2000/svg">
<g id="#2ac7f6ff">
<path fill="#2ac7f6" opacity="1.00" d=" M 9.98 0.00 L 11.81 0.00 C 11.25 0.22 10.12 0.67 9.56 0.90 L 9.98 0.00 Z" />
<path fill="#2ac7f6" opacity="1.00" d=" M 271.05 0.00 L 272.86 0.00 L 273.23 0.74 L 272.37 1.09 C 272.04 0.81 271.38 0.27 271.05 0.00 Z" />
<path fill="#2ac7f6" opacity="1.00" d=" M 8.30 1.54 C 8.44 1.46 8.74 1.32 8.88 1.24 C 8.74 1.32 8.44 1.46 8.30 1.54 Z" />
<path fill="#2ac7f6" opacity="1.00" d=" M 4.71 3.69 C 5.36 2.47 6.37 1.85 7.73 1.82 C 7.19 3.30 6.18 3.93 4.71 3.69 Z" />
<path fill="#2ac7f6" opacity="1.00" d=" M 279.42 4.39 C 279.52 4.51 279.71 4.74 279.80 4.86 C 279.71 4.74 279.52 4.51 279.42 4.39 Z" />
<path fill="#2ac7f6" opacity="1.00" d=" M 2.09 7.19 C 2.18 7.05 2.35 6.78 2.44 6.64 C 2.35 6.78 2.18 7.05 2.09 7.19 Z" />
<path fill="#2ac7f6" opacity="1.00" d=" M 281.37 7.28 C 281.44 7.40 281.58 7.63 281.65 7.74 C 281.58 7.63 281.44 7.40 281.37 7.28 Z" />
<path fill="#2ac7f6" opacity="1.00" d=" M 1.32 8.58 C 1.41 8.41 1.59 8.08 1.68 7.92 C 1.59 8.08 1.41 8.41 1.32 8.58 Z" />
<path fill="#2ac7f6" opacity="1.00" d=" M 281.93 8.22 C 282.21 8.81 282.75 10.00 283.02 10.59 C 282.75 10.00 282.21 8.81 281.93 8.22 Z" />
<path fill="#2ac7f6" opacity="1.00" d=" M 0.00 9.95 L 0.84 9.52 C 0.63 10.08 0.21 11.20 0.00 11.76 L 0.00 9.95 Z" />
<path fill="#2ac7f6" opacity="1.00" d=" M 283.26 11.53 C 284.39 14.90 283.86 18.51 283.96 22.00 C 283.93 63.98 283.92 105.95 283.96 147.93 C 355.96 148.10 427.96 147.93 499.96 148.01 C 505.66 148.81 509.85 153.59 512.00 158.66 L 512.00 341.35 C 509.78 346.77 505.05 351.52 498.96 351.98 C 486.66 352.09 474.35 351.91 462.05 352.03 C 461.97 374.02 461.97 396.01 462.05 418.00 L 460.66 418.00 C 450.30 409.08 439.25 401.00 428.64 392.37 C 413.15 380.19 397.68 367.98 382.24 355.74 C 380.06 354.15 377.99 351.68 375.03 351.99 C 330.37 351.99 285.70 352.04 241.04 351.97 C 234.04 350.71 228.24 344.19 228.00 337.01 C 227.99 296.01 228.01 255.01 228.00 214.01 C 228.01 210.73 227.86 207.44 228.20 204.17 C 229.06 194.14 228.37 184.05 228.59 174.00 C 228.81 168.54 227.87 162.89 229.55 157.59 C 231.54 152.09 237.07 148.17 242.91 148.05 C 256.31 147.84 269.71 148.17 283.11 147.93 C 283.36 102.46 283.07 56.99 283.26 11.53 M 282.02 240.02 C 279.29 244.48 279.95 249.85 280.13 254.83 C 282.11 264.32 291.53 270.98 300.99 271.04 C 308.82 270.55 316.22 265.74 319.60 258.64 C 321.63 254.43 320.97 249.67 320.88 245.17 C 319.74 240.71 317.36 236.35 313.65 233.55 C 313.55 233.49 313.35 233.35 313.25 233.28 C 312.61 232.88 311.33 232.07 310.69 231.67 C 310.58 231.61 310.36 231.50 310.25 231.44 C 300.61 225.95 286.89 230.00 282.02 240.02 M 372.37 229.35 C 365.74 231.10 359.69 235.59 357.18 242.10 C 355.37 245.80 356.11 250.01 356.07 253.98 C 357.93 261.88 364.39 268.99 372.57 270.42 C 379.17 272.41 385.98 269.11 391.20 265.22 C 395.36 260.98 397.62 255.10 397.67 249.21 C 397.02 242.77 394.18 236.01 388.41 232.58 C 383.83 229.32 377.83 228.22 372.37 229.35 M 422.55 238.35 C 422.49 238.44 422.37 238.62 422.31 238.71 C 416.40 247.53 418.93 260.37 427.38 266.61 C 432.49 269.97 439.12 272.40 445.16 270.15 C 452.57 268.49 458.78 262.29 460.44 254.87 C 460.47 254.75 460.54 254.51 460.57 254.38 C 463.72 242.26 453.41 229.21 441.03 228.97 C 433.72 228.49 426.61 232.34 422.55 238.35 Z" />
<path fill="#2ac7f6" opacity="1.00" d=" M 66.10 82.12 C 66.62 80.48 67.57 80.21 68.94 81.34 C 68.11 82.02 67.17 82.28 66.10 82.12 Z" />
<path fill="#2ac7f6" opacity="1.00" d=" M 74.94 81.37 C 76.32 80.23 77.24 80.49 77.71 82.15 C 76.66 82.31 75.73 82.05 74.94 81.37 Z" />
<path fill="#2ac7f6" opacity="1.00" d=" M 136.08 82.07 C 136.39 81.75 137.00 81.12 137.31 80.81 L 138.09 81.29 C 137.58 81.49 136.58 81.88 136.08 82.07 Z" />
<path fill="#2ac7f6" opacity="1.00" d=" M 144.94 81.47 C 146.28 80.35 147.30 80.59 148.02 82.18 C 146.89 82.35 145.86 82.11 144.94 81.47 Z" />
<path fill="#2ac7f6" opacity="1.00" d=" M 205.99 82.03 C 206.32 81.73 206.96 81.12 207.29 80.82 L 208.05 81.31 C 207.54 81.49 206.51 81.85 205.99 82.03 Z" />
<path fill="#2ac7f6" opacity="1.00" d=" M 214.94 81.30 L 215.71 80.82 C 216.04 81.12 216.68 81.72 217.00 82.03 C 216.49 81.85 215.46 81.49 214.94 81.30 Z" />
<path fill="#2ac7f6" opacity="1.00" d=" M 63.43 82.20 C 63.87 82.20 64.77 82.19 65.22 82.19 C 64.73 82.41 63.75 82.85 63.26 83.07 L 63.43 82.20 Z" />
<path fill="#2ac7f6" opacity="1.00" d=" M 149.11 82.56 C 149.32 82.64 149.74 82.81 149.95 82.90 C 149.74 82.81 149.32 82.64 149.11 82.56 Z" />
<path fill="#2ac7f6" opacity="1.00" d=" M 202.97 82.92 C 203.15 82.84 203.50 82.68 203.68 82.60 C 203.50 82.68 203.15 82.84 202.97 82.92 Z" />
<path fill="#2ac7f6" opacity="1.00" d=" M 219.32 82.60 C 219.50 82.68 219.85 82.84 220.03 82.91 C 219.85 82.84 219.50 82.68 219.32 82.60 Z" />
<path fill="#2ac7f6" opacity="1.00" d=" M 150.95 83.35 C 151.14 83.44 151.52 83.63 151.71 83.73 C 151.52 83.63 151.14 83.44 150.95 83.35 Z" />
<path fill="#2ac7f6" opacity="1.00" d=" M 201.54 83.66 C 201.69 83.57 201.99 83.41 202.14 83.32 C 201.99 83.41 201.69 83.57 201.54 83.66 Z" />
<path fill="#2ac7f6" opacity="1.00" d=" M 220.86 83.32 C 221.01 83.40 221.31 83.57 221.46 83.66 C 221.31 83.57 221.01 83.40 220.86 83.32 Z" />
<path fill="#2ac7f6" opacity="1.00" d=" M 60.31 84.69 C 60.42 84.62 60.65 84.47 60.76 84.39 C 60.65 84.47 60.42 84.62 60.31 84.69 Z" />
<path fill="#2ac7f6" opacity="1.00" d=" M 152.58 84.19 C 154.31 83.74 155.11 84.37 154.98 86.09 C 153.94 85.77 153.14 85.14 152.58 84.19 Z" />
<path fill="#2ac7f6" opacity="1.00" d=" M 157.90 89.04 C 159.62 88.88 160.26 89.67 159.82 91.40 C 158.87 90.85 158.23 90.06 157.90 89.04 Z" />
<path fill="#2ac7f6" opacity="1.00" d=" M 89.27 90.45 C 89.33 90.58 89.47 90.84 89.54 90.97 C 89.47 90.84 89.33 90.58 89.27 90.45 Z" />
<path fill="#2ac7f6" opacity="1.00" d=" M 123.32 92.16 C 123.41 92.00 123.58 91.69 123.67 91.53 C 123.58 91.69 123.41 92.00 123.32 92.16 Z" />
<path fill="#2ac7f6" opacity="1.00" d=" M 89.86 91.69 C 91.52 91.27 92.87 94.10 91.70 95.27 C 90.89 94.19 90.27 92.98 89.86 91.69 Z" />
<path fill="#2ac7f6" opacity="1.00" d=" M 160.22 92.21 C 160.30 92.39 160.44 92.74 160.52 92.91 C 160.44 92.74 160.30 92.39 160.22 92.21 Z" />
<path fill="#2ac7f6" opacity="1.00" d=" M 52.53 93.93 C 52.59 93.80 52.70 93.55 52.76 93.42 C 52.70 93.55 52.59 93.80 52.53 93.93 Z" />
<path fill="#2ac7f6" opacity="1.00" d=" M 122.53 93.85 C 122.62 93.65 122.80 93.25 122.89 93.05 C 122.80 93.25 122.62 93.65 122.53 93.85 Z" />
<path fill="#2ac7f6" opacity="1.00" d=" M 191.23 94.39 L 192.12 94.25 C 191.89 94.72 191.45 95.66 191.23 96.13 L 190.77 95.35 L 191.23 94.39 Z" />
<path fill="#2ac7f6" opacity="1.00" d=" M 120.86 96.26 C 121.18 95.92 121.80 95.24 122.11 94.90 C 121.92 95.43 121.53 96.50 121.34 97.03 L 120.86 96.26 Z" />
<path fill="#2ac7f6" opacity="1.00" d=" M 50.81 97.29 C 51.12 96.96 51.72 96.32 52.03 96.00 C 51.85 96.51 51.49 97.54 51.31 98.05 L 50.81 97.29 Z" />
<path fill="#2ac7f6" opacity="1.00" d=" M 91.88 96.14 C 93.48 96.77 93.70 97.75 92.53 99.08 C 91.89 98.20 91.67 97.22 91.88 96.14 Z" />
<path fill="#2ac7f6" opacity="1.00" d=" M 161.86 97.14 C 163.61 97.20 163.80 100.24 162.52 101.09 C 161.95 99.85 161.80 98.49 161.86 97.14 Z" />
<path fill="#2ac7f6" opacity="1.00" d=" M 190.90 106.37 C 189.68 103.64 189.68 100.37 190.91 97.65 C 190.91 100.56 190.91 103.46 190.90 106.37 Z" />
<path fill="#2ac7f6" opacity="1.00" d=" M 232.09 97.79 C 233.33 100.47 233.31 103.69 232.09 106.37 C 232.09 103.51 232.10 100.65 232.09 97.79 Z" />
<path fill="#2ac7f6" opacity="1.00" d=" M 161.89 106.88 C 161.80 105.53 161.95 104.17 162.52 102.93 C 163.78 103.77 163.64 106.82 161.89 106.88 Z" />
<path fill="#2ac7f6" opacity="1.00" d=" M 91.85 107.69 C 91.67 106.63 91.92 105.71 92.61 104.91 C 93.75 106.29 93.50 107.21 91.85 107.69 Z" />
<path fill="#2ac7f6" opacity="1.00" d=" M 51.41 106.00 C 52.06 106.90 52.32 107.92 52.17 109.04 C 50.56 108.36 50.31 107.34 51.41 106.00 Z" />
<path fill="#2ac7f6" opacity="1.00" d=" M 121.30 106.93 C 121.49 107.43 121.87 108.44 122.07 108.94 C 121.75 108.63 121.12 108.01 120.81 107.70 L 121.30 106.93 Z" />
<path fill="#2ac7f6" opacity="1.00" d=" M 191.39 107.96 C 191.57 108.48 191.93 109.53 192.11 110.05 C 191.80 109.71 191.19 109.04 190.88 108.70 L 191.39 107.96 Z" />
<path fill="#2ac7f6" opacity="1.00" d=" M 230.88 110.05 C 231.06 109.52 231.43 108.48 231.61 107.96 L 232.12 108.71 C 231.81 109.04 231.19 109.71 230.88 110.05 Z" />
<path fill="#2ac7f6" opacity="1.00" d=" M 161.07 110.03 C 161.15 109.85 161.30 109.47 161.37 109.28 C 161.30 109.47 161.15 109.85 161.07 110.03 Z" />
<path fill="#2ac7f6" opacity="1.00" d=" M 52.55 110.12 C 52.63 110.32 52.80 110.71 52.88 110.91 C 52.80 110.71 52.63 110.32 52.55 110.12 Z" />
<path fill="#2ac7f6" opacity="1.00" d=" M 122.28 109.75 C 123.08 110.70 123.63 111.82 124.06 112.98 C 122.44 113.73 120.92 110.80 122.28 109.75 Z" />
<path fill="#2ac7f6" opacity="1.00" d=" M 160.28 111.71 C 160.37 111.52 160.56 111.15 160.65 110.96 C 160.56 111.15 160.37 111.52 160.28 111.71 Z" />
<path fill="#2ac7f6" opacity="1.00" d=" M 192.44 110.96 C 192.51 111.11 192.64 111.39 192.71 111.54 C 192.64 111.39 192.51 111.11 192.44 110.96 Z" />
<path fill="#2ac7f6" opacity="1.00" d=" M 230.27 111.54 C 230.34 111.39 230.48 111.10 230.55 110.96 C 230.48 111.10 230.34 111.39 230.27 111.54 Z" />
<path fill="#2ac7f6" opacity="1.00" d=" M 53.32 111.82 C 53.40 111.97 53.58 112.28 53.67 112.43 C 53.58 112.28 53.40 111.97 53.32 111.82 Z" />
<path fill="#2ac7f6" opacity="1.00" d=" M 157.89 114.97 C 158.23 113.94 158.87 113.15 159.80 112.58 C 160.25 114.31 159.61 115.11 157.89 114.97 Z" />
<path fill="#2ac7f6" opacity="1.00" d=" M 194.05 113.68 C 196.19 115.84 198.33 117.99 200.60 120.01 C 197.68 118.93 195.16 116.61 194.05 113.68 Z" />
<path fill="#2ac7f6" opacity="1.00" d=" M 226.86 115.98 C 227.18 114.98 227.82 114.25 228.76 113.78 C 229.23 115.48 228.60 116.22 226.86 115.98 Z" />
<path fill="#2ac7f6" opacity="1.00" d=" M 152.76 119.69 C 153.27 118.78 154.03 118.18 155.03 117.90 C 155.23 119.64 154.47 120.23 152.76 119.69 Z" />
<path fill="#2ac7f6" opacity="1.00" d=" M 83.23 119.61 C 83.35 119.54 83.57 119.39 83.68 119.31 C 83.57 119.39 83.35 119.54 83.23 119.61 Z" />
<path fill="#2ac7f6" opacity="1.00" d=" M 61.58 120.33 C 61.74 120.42 62.04 120.59 62.19 120.68 C 62.04 120.59 61.74 120.42 61.58 120.33 Z" />
<path fill="#2ac7f6" opacity="1.00" d=" M 131.55 120.35 C 131.70 120.43 132.02 120.60 132.17 120.69 C 132.02 120.60 131.70 120.43 131.55 120.35 Z" />
<path fill="#2ac7f6" opacity="1.00" d=" M 148.75 121.69 C 149.76 120.89 150.91 120.31 152.14 119.94 C 152.75 121.57 149.83 122.96 148.75 121.69 Z" />
<path fill="#2ac7f6" opacity="1.00" d=" M 201.41 120.40 C 201.58 120.48 201.93 120.64 202.10 120.72 C 201.93 120.64 201.58 120.48 201.41 120.40 Z" />
<path fill="#2ac7f6" opacity="1.00" d=" M 220.83 120.67 C 220.99 120.58 221.31 120.41 221.47 120.32 C 221.31 120.41 220.99 120.58 220.83 120.67 Z" />
<path fill="#2ac7f6" opacity="1.00" d=" M 63.10 121.11 C 63.30 121.19 63.70 121.36 63.90 121.44 C 63.70 121.36 63.30 121.19 63.10 121.11 Z" />
<path fill="#2ac7f6" opacity="1.00" d=" M 78.84 121.87 C 79.33 121.64 80.30 121.18 80.79 120.95 L 80.63 121.83 C 80.18 121.84 79.29 121.86 78.84 121.87 Z" />
<path fill="#2ac7f6" opacity="1.00" d=" M 133.08 121.12 C 133.28 121.20 133.68 121.37 133.88 121.45 C 133.68 121.37 133.28 121.20 133.08 121.12 Z" />
<path fill="#2ac7f6" opacity="1.00" d=" M 203.05 121.13 C 203.25 121.21 203.66 121.38 203.87 121.46 C 203.66 121.38 203.25 121.21 203.05 121.13 Z" />
<path fill="#2ac7f6" opacity="1.00" d=" M 219.14 121.47 C 219.34 121.38 219.74 121.20 219.94 121.11 C 219.74 121.20 219.34 121.38 219.14 121.47 Z" />
<path fill="#2ac7f6" opacity="1.00" d=" M 65.01 121.81 C 66.13 121.64 67.15 121.89 68.07 122.53 C 66.73 123.65 65.71 123.40 65.01 121.81 Z" />
<path fill="#2ac7f6" opacity="1.00" d=" M 75.93 122.72 C 76.43 122.52 77.42 122.12 77.92 121.92 C 77.62 122.24 77.01 122.88 76.70 123.20 L 75.93 122.72 Z" />
<path fill="#2ac7f6" opacity="1.00" d=" M 134.96 121.83 C 136.08 121.68 137.09 121.93 138.01 122.57 C 136.66 123.68 135.64 123.43 134.96 121.83 Z" />
<path fill="#2ac7f6" opacity="1.00" d=" M 145.94 122.70 C 146.44 122.51 147.44 122.12 147.94 121.93 C 147.63 122.25 147.01 122.88 146.70 123.19 L 145.94 122.70 Z" />
<path fill="#2ac7f6" opacity="1.00" d=" M 204.93 121.87 C 205.46 122.05 206.53 122.42 207.06 122.60 L 206.30 123.10 C 205.96 122.79 205.27 122.18 204.93 121.87 Z" />
<path fill="#2ac7f6" opacity="1.00" d=" M 215.94 122.59 C 216.48 122.42 217.55 122.07 218.08 121.89 C 217.74 122.19 217.04 122.80 216.69 123.10 L 215.94 122.59 Z" />
<path fill="#2ac7f6" opacity="1.00" d=" M 0.00 192.27 C 0.27 192.60 0.82 193.26 1.10 193.59 L 0.85 194.51 L 0.00 194.11 L 0.00 192.27 Z" />
<path fill="#2ac7f6" opacity="1.00" d=" M 1.30 195.44 C 1.39 195.61 1.55 195.94 1.63 196.11 C 1.55 195.94 1.39 195.61 1.30 195.44 Z" />
<path fill="#2ac7f6" opacity="1.00" d=" M 2.01 196.84 C 2.10 196.97 2.26 197.25 2.35 197.39 C 2.26 197.25 2.10 196.97 2.01 196.84 Z" />
<path fill="#2ac7f6" opacity="1.00" d=" M 6.62 201.64 C 6.76 201.72 7.03 201.89 7.16 201.97 C 7.03 201.89 6.76 201.72 6.62 201.64 Z" />
<path fill="#2ac7f6" opacity="1.00" d=" M 7.88 202.34 C 8.03 202.42 8.35 202.57 8.51 202.65 C 8.35 202.57 8.03 202.42 7.88 202.34 Z" />
<path fill="#2ac7f6" opacity="1.00" d=" M 9.38 203.06 C 10.84 202.50 12.01 202.82 12.89 204.04 C 11.52 204.40 10.35 204.07 9.38 203.06 Z" />
<path fill="#2ac7f6" opacity="1.00" d=" M 49.97 204.11 L 50.80 204.20 C 51.03 225.58 50.55 246.98 51.01 268.36 C 51.53 268.40 52.57 268.49 53.09 268.53 C 52.17 269.18 51.20 269.77 50.23 270.34 C 49.74 248.27 50.29 226.18 49.97 204.11 Z" />
<path fill="#2ac7f6" opacity="1.00" d=" M 130.75 207.06 C 130.94 205.70 131.68 204.92 132.99 204.72 C 133.00 206.15 132.25 206.93 130.75 207.06 Z" />
<path fill="#2ac7f6" opacity="1.00" d=" M 106.76 226.25 C 106.58 224.28 108.45 223.02 110.25 223.09 C 109.47 224.48 108.41 225.89 106.76 226.25 Z" />
<path fill="#2ac7f6" opacity="1.00" d=" M 101.67 230.09 C 101.91 228.29 103.36 227.07 105.11 226.81 C 104.89 228.58 103.33 229.78 101.67 230.09 Z" />
<path fill="#2ac7f6" opacity="1.00" d=" M 78.69 248.08 C 78.94 246.67 79.79 245.97 81.23 245.98 C 80.91 247.33 80.06 248.04 78.69 248.08 Z" />
<path fill="#2ac7f6" opacity="1.00" d=" M 59.68 263.07 C 59.94 261.67 60.79 260.97 62.23 260.98 C 61.91 262.34 61.06 263.04 59.68 263.07 Z" />
</g>
<g id="#010101ff">
<path fill="#010101" opacity="1.00" d=" M 11.81 0.00 L 271.05 0.00 C 271.38 0.27 272.04 0.81 272.37 1.09 L 273.23 0.74 C 275.52 1.51 277.72 2.64 279.42 4.39 C 279.52 4.51 279.71 4.74 279.80 4.86 C 280.20 5.46 280.98 6.68 281.37 7.28 C 281.44 7.40 281.58 7.63 281.65 7.74 L 281.93 8.22 C 282.21 8.81 282.75 10.00 283.02 10.59 L 283.26 11.53 C 283.07 56.99 283.36 102.46 283.11 147.93 C 269.71 148.17 256.31 147.84 242.91 148.05 C 237.07 148.17 231.54 152.09 229.55 157.59 C 227.87 162.89 228.81 168.54 228.59 174.00 C 228.37 184.05 229.06 194.14 228.20 204.17 C 199.47 203.75 170.73 204.17 142.00 203.95 C 138.98 203.90 135.94 204.03 132.99 204.72 C 131.68 204.92 130.94 205.70 130.75 207.06 C 123.96 212.46 117.41 218.19 110.25 223.09 C 108.45 223.02 106.58 224.28 106.76 226.25 C 106.35 226.39 105.52 226.67 105.11 226.81 C 103.36 227.07 101.91 228.29 101.67 230.09 C 94.97 235.53 88.26 240.98 81.23 245.98 C 79.79 245.97 78.94 246.67 78.69 248.08 C 73.37 252.59 67.96 257.01 62.23 260.98 C 60.79 260.97 59.94 261.67 59.68 263.07 C 57.55 264.96 55.43 266.89 53.09 268.53 C 52.57 268.49 51.53 268.40 51.01 268.36 C 50.55 246.98 51.03 225.58 50.80 204.20 L 49.97 204.11 C 37.61 203.85 25.25 204.04 12.89 204.04 C 12.01 202.82 10.84 202.50 9.38 203.06 L 8.51 202.65 C 8.35 202.57 8.03 202.42 7.88 202.34 L 7.16 201.97 C 7.03 201.89 6.76 201.72 6.62 201.64 C 4.95 200.50 3.50 199.05 2.35 197.39 C 2.26 197.25 2.10 196.97 2.01 196.84 L 1.63 196.11 C 1.55 195.94 1.39 195.61 1.30 195.44 L 0.85 194.51 L 1.10 193.59 C 0.82 193.26 0.27 192.60 0.00 192.27 L 0.00 11.76 C 0.21 11.20 0.63 10.08 0.84 9.52 L 1.32 8.58 C 1.41 8.41 1.59 8.08 1.68 7.92 L 2.09 7.19 C 2.18 7.05 2.35 6.78 2.44 6.64 C 3.18 5.65 3.94 4.66 4.71 3.69 C 6.18 3.93 7.19 3.30 7.73 1.82 L 8.30 1.54 C 8.44 1.46 8.74 1.32 8.88 1.24 L 9.56 0.90 C 10.12 0.67 11.25 0.22 11.81 0.00 M 66.10 82.12 L 65.22 82.19 C 64.77 82.19 63.87 82.20 63.43 82.20 L 63.26 83.07 C 62.63 83.40 61.38 84.06 60.76 84.39 C 60.65 84.47 60.42 84.62 60.31 84.69 C 57.06 86.85 54.50 89.94 52.76 93.42 C 52.70 93.55 52.59 93.80 52.53 93.93 C 52.40 94.45 52.15 95.48 52.03 96.00 C 51.72 96.32 51.12 96.96 50.81 97.29 L 51.31 98.05 C 50.82 100.63 50.62 103.47 51.41 106.00 C 50.31 107.34 50.56 108.36 52.17 109.04 L 52.55 110.12 C 52.63 110.32 52.80 110.71 52.88 110.91 L 53.32 111.82 C 53.40 111.97 53.58 112.28 53.67 112.43 C 55.66 115.60 58.42 118.33 61.58 120.33 C 61.74 120.42 62.04 120.59 62.19 120.68 L 63.10 121.11 C 63.30 121.19 63.70 121.36 63.90 121.44 L 65.01 121.81 C 65.71 123.40 66.73 123.65 68.07 122.53 C 70.53 123.44 73.37 123.13 75.93 122.72 L 76.70 123.20 C 77.01 122.88 77.62 122.24 77.92 121.92 L 78.84 121.87 C 79.29 121.86 80.18 121.84 80.63 121.83 L 80.79 120.95 C 81.40 120.62 82.62 119.95 83.23 119.61 C 83.35 119.54 83.57 119.39 83.68 119.31 C 87.80 116.70 90.63 112.36 91.85 107.69 C 93.50 107.21 93.75 106.29 92.61 104.91 C 93.30 103.11 93.31 100.84 92.53 99.08 C 93.70 97.75 93.48 96.77 91.88 96.14 L 91.70 95.27 C 92.87 94.10 91.52 91.27 89.86 91.69 L 89.54 90.97 C 89.47 90.84 89.33 90.58 89.27 90.45 C 86.85 86.18 82.29 83.50 77.71 82.15 C 77.24 80.49 76.32 80.23 74.94 81.37 C 73.06 80.68 70.85 80.80 68.94 81.34 C 67.57 80.21 66.62 80.48 66.10 82.12 M 136.08 82.07 L 135.15 82.13 L 134.35 81.70 L 133.37 82.16 L 133.22 83.05 C 129.25 84.72 125.98 87.95 123.67 91.53 C 123.58 91.69 123.41 92.00 123.32 92.16 L 122.89 93.05 C 122.80 93.25 122.62 93.65 122.53 93.85 L 122.11 94.90 C 121.80 95.24 121.18 95.92 120.86 96.26 L 121.34 97.03 C 120.70 100.26 120.77 103.68 121.30 106.93 L 120.81 107.70 C 121.12 108.01 121.75 108.63 122.07 108.94 L 122.28 109.75 C 120.92 110.80 122.44 113.73 124.06 112.98 C 125.89 115.96 128.63 118.43 131.55 120.35 C 131.70 120.43 132.02 120.60 132.17 120.69 L 133.08 121.12 C 133.28 121.20 133.68 121.37 133.88 121.45 L 134.96 121.83 C 135.64 123.43 136.66 123.68 138.01 122.57 C 140.52 123.40 143.36 123.16 145.94 122.70 L 146.70 123.19 C 147.01 122.88 147.63 122.25 147.94 121.93 L 148.75 121.69 C 149.83 122.96 152.75 121.57 152.14 119.94 L 152.76 119.69 C 154.47 120.23 155.23 119.64 155.03 117.90 C 156.37 117.42 157.38 116.28 157.89 114.97 C 159.61 115.11 160.25 114.31 159.80 112.58 L 160.28 111.71 C 160.37 111.52 160.56 111.15 160.65 110.96 L 161.07 110.03 C 161.15 109.85 161.30 109.47 161.37 109.28 C 161.50 108.68 161.76 107.48 161.89 106.88 C 163.64 106.82 163.78 103.77 162.52 102.93 C 162.52 102.47 162.52 101.55 162.52 101.09 C 163.80 100.24 163.61 97.20 161.86 97.14 L 161.71 96.07 L 162.15 95.28 C 161.83 94.94 161.19 94.26 160.87 93.92 L 160.52 92.91 C 160.44 92.74 160.30 92.39 160.22 92.21 L 159.82 91.40 C 160.26 89.67 159.62 88.88 157.90 89.04 C 157.41 87.69 156.35 86.56 154.98 86.09 C 155.11 84.37 154.31 83.74 152.58 84.19 L 151.71 83.73 C 151.52 83.63 151.14 83.44 150.95 83.35 L 149.95 82.90 C 149.74 82.81 149.32 82.64 149.11 82.56 L 148.02 82.18 C 147.30 80.59 146.28 80.35 144.94 81.47 C 142.84 80.53 140.30 80.89 138.09 81.29 L 137.31 80.81 C 137.00 81.12 136.39 81.75 136.08 82.07 M 205.99 82.03 C 205.42 82.17 204.26 82.46 203.68 82.60 C 203.50 82.68 203.15 82.84 202.97 82.92 L 202.14 83.32 C 201.99 83.41 201.69 83.57 201.54 83.66 C 197.65 86.31 193.88 89.79 192.12 94.25 L 191.23 94.39 L 190.77 95.35 L 191.23 96.13 C 191.15 96.51 190.99 97.27 190.91 97.65 C 189.68 100.37 189.68 103.64 190.90 106.37 C 191.02 106.77 191.27 107.56 191.39 107.96 L 190.88 108.70 C 191.19 109.04 191.80 109.71 192.11 110.05 L 192.44 110.96 C 192.51 111.11 192.64 111.39 192.71 111.54 C 193.04 112.07 193.72 113.14 194.05 113.68 C 195.16 116.61 197.68 118.93 200.60 120.01 L 201.41 120.40 C 201.58 120.48 201.93 120.64 202.10 120.72 L 203.05 121.13 C 203.25 121.21 203.66 121.38 203.87 121.46 L 204.93 121.87 C 205.27 122.18 205.96 122.79 206.30 123.10 L 207.06 122.60 C 209.94 123.29 213.06 123.30 215.94 122.59 L 216.69 123.10 C 217.04 122.80 217.74 122.19 218.08 121.89 L 219.14 121.47 C 219.34 121.38 219.74 121.20 219.94 121.11 L 220.83 120.67 C 220.99 120.58 221.31 120.41 221.47 120.32 C 223.38 119.07 225.56 117.90 226.86 115.98 C 228.60 116.22 229.23 115.48 228.76 113.78 C 229.14 113.22 229.90 112.10 230.27 111.54 C 230.34 111.39 230.48 111.10 230.55 110.96 L 230.88 110.05 C 231.19 109.71 231.81 109.04 232.12 108.71 L 231.61 107.96 C 231.73 107.56 231.97 106.77 232.09 106.37 C 233.31 103.69 233.33 100.47 232.09 97.79 C 230.72 91.84 226.45 86.96 221.46 83.66 C 221.31 83.57 221.01 83.40 220.86 83.32 L 220.03 82.91 C 219.85 82.84 219.50 82.68 219.32 82.60 C 218.74 82.46 217.58 82.17 217.00 82.03 C 216.68 81.72 216.04 81.12 215.71 80.82 L 214.94 81.30 C 212.71 80.77 210.29 80.77 208.05 81.31 L 207.29 80.82 C 206.96 81.12 206.32 81.73 205.99 82.03 Z" />
</g>
<g id="#7cb2c234">
<path fill="#7cb2c2" opacity="0.20" d=" M 133.37 82.16 L 134.35 81.70 L 135.15 82.13 C 134.66 82.36 133.70 82.82 133.22 83.05 L 133.37 82.16 Z" />
<path fill="#7cb2c2" opacity="0.20" d=" M 160.87 93.92 C 161.19 94.26 161.83 94.94 162.15 95.28 L 161.71 96.07 C 161.50 95.53 161.08 94.46 160.87 93.92 Z" />
<path fill="#7cb2c2" opacity="0.20" d=" M 310.25 231.44 C 310.36 231.50 310.58 231.61 310.69 231.67 C 310.58 231.61 310.36 231.50 310.25 231.44 Z" />
<path fill="#7cb2c2" opacity="0.20" d=" M 313.25 233.28 C 313.35 233.35 313.55 233.49 313.65 233.55 C 313.55 233.49 313.35 233.35 313.25 233.28 Z" />
<path fill="#7cb2c2" opacity="0.20" d=" M 422.31 238.71 C 422.37 238.62 422.49 238.44 422.55 238.35 C 422.49 238.44 422.37 238.62 422.31 238.71 Z" />
<path fill="#7cb2c2" opacity="0.20" d=" M 460.44 254.87 C 460.47 254.75 460.54 254.51 460.57 254.38 C 460.54 254.51 460.47 254.75 460.44 254.87 Z" />
</g>
</svg>
