<?xml version="1.0" encoding="UTF-8" standalone="no"?>
<svg
   xmlns:dc="http://purl.org/dc/elements/1.1/"
   xmlns:cc="http://creativecommons.org/ns#"
   xmlns:rdf="http://www.w3.org/1999/02/22-rdf-syntax-ns#"
   xmlns:svg="http://www.w3.org/2000/svg"
   xmlns="http://www.w3.org/2000/svg"
   viewBox="0 0 440 416"
   height="416"
   width="440"
   xml:space="preserve"
   id="svg2"
   version="1.1"><metadata
     id="metadata8"><rdf:RDF><cc:Work
         rdf:about=""><dc:format>image/svg+xml</dc:format><dc:type
           rdf:resource="http://purl.org/dc/dcmitype/StillImage" /></cc:Work></rdf:RDF></metadata><defs
     id="defs6"><clipPath
       id="clipPath18"
       clipPathUnits="userSpaceOnUse"><path
         id="path16"
         d="M 0,312 H 330 V 0 H 0 Z" /></clipPath></defs><g
     transform="matrix(1.3333333,0,0,-1.3333333,0,416)"
     id="g10"><g
       id="g12"><g
         clip-path="url(#clipPath18)"
         id="g14"><g
           transform="translate(217.3512,192.7969)"
           id="g20"><path
             id="path22"
             style="fill:#3e3f7e;fill-opacity:1;fill-rule:nonzero;stroke:none"
             d="m 0,0 -2.046,-2.154 c 0.42,-1.589 0.917,-3.262 1.504,-5.044 5.113,-15.523 5.073,-35.404 3.361,-44.838 -0.068,-0.375 0.464,-0.568 0.682,-0.247 0.429,0.633 0.852,1.279 1.272,1.936 10.35,16.218 3.353,36.441 -0.835,52.599 C 3.482,4.012 3.134,5.691 2.859,7.302 2.858,3.071 0.131,0.138 0,0" /></g><g
           transform="translate(219.2097,203.1126)"
           id="g24"><path
             id="path26"
             style="fill:#3e3f7e;fill-opacity:1;fill-rule:nonzero;stroke:none"
             d="M 0,0 C -0.98,7.665 -0.12,13.303 0.502,16.032 0.588,16.406 0.059,16.616 -0.169,16.3 -3.035,12.332 -5,8.597 -5.816,4.205 -5.067,4.142 -4.359,3.979 -3.695,3.712 -1.365,2.78 -0.369,0.93 0,0" /></g><g
           transform="translate(199.5367,158.8084)"
           id="g28"><path
             id="path30"
             style="fill:#3e3f7e;fill-opacity:1;fill-rule:nonzero;stroke:none"
             d="m 0,0 c 0.072,0.243 -0.055,0.49 -0.301,0.588 -0.254,0.1 -0.532,0.012 -0.668,-0.209 -1.602,-2.592 -2.898,-5.249 -3.882,-7.902 1.207,0.432 2.371,0.871 3.479,1.311 0.389,2.6 0.961,4.817 1.372,6.212" /></g><g
           transform="translate(243.0319,168.5977)"
           id="g32"><path
             id="path34"
             style="fill:#3e3f7e;fill-opacity:1;fill-rule:nonzero;stroke:none"
             d="m 0,0 c -0.849,0.139 -2.153,0.199 -3.868,0.266 -1.887,0.075 -5.399,0.213 -5.521,0.708 0,0.003 -0.026,0.25 1.075,0.809 1.033,0.524 2.016,0.733 2.926,0.733 C -2.89,2.516 -0.94,0.939 0,0 m -48.146,-30.971 c 0,0 2.664,-8.14 12.389,-9.016 0.709,-0.064 1.428,-0.163 2.173,-0.163 12.799,0 31.357,15.467 34.616,19.073 l 0.394,0.434 c 3.179,3.493 9.095,10.197 6.521,19.749 -1.438,5.337 -8.036,12.296 -13.411,12.296 h -0.018 c -3.205,0 -7.906,-4.962 -8.323,-9.806 -0.261,-3.042 0.367,-5.423 1.868,-6.877 2.136,-2.068 5.624,-2.235 8.758,-2.074 4.737,0.239 6.341,-1.619 6.355,-1.637 l 0.082,-0.079 c 0.277,-0.145 0.04,-0.76 -0.075,-1.015 -2.38,-5.282 -24.072,-23.967 -37.877,-20.542 -5.524,1.37 -6.681,4.396 -6.681,4.396 0,0 -4.227,-3.356 -6.771,-4.739" /></g><g
           transform="translate(214.4795,155.8747)"
           id="g36"><path
             id="path38"
             style="fill:#3e3f7e;fill-opacity:1;fill-rule:nonzero;stroke:none"
             d="m 0,0 c 4.328,4.735 4.799,9.655 3.015,13.026 -1.626,3.072 -5.565,4.888 -11.092,5.112 -4.314,0.175 -8.706,1.755 -10.683,3.844 -0.673,0.711 -0.988,1.408 -0.938,2.072 0.42,5.558 6.84,16.141 16.073,16.753 0.122,0.008 3.039,0.189 3.734,-2.647 l 0.233,-0.952 0.69,0.728 c 0.128,0.134 3.11,3.334 2.315,7.803 -0.025,0.092 -0.62,2.282 -2.942,3.211 -2.138,0.857 -4.955,0.344 -8.371,-1.525 -10.443,-5.716 -19.064,-20.444 -16.773,-28.653 1.949,-6.981 9.681,-7.876 12.984,-8.258 0.284,-0.033 0.538,-0.063 0.759,-0.092 0.225,-0.03 0.466,-0.061 0.719,-0.092 2.716,-0.342 7.26,-0.915 7.692,-3.459 0.01,-0.06 0.013,-0.291 -0.376,-0.753 -4.982,-10.3 -45.978,-28.483 -50.125,-16.152 0,0 -3.407,-1.918 -10.746,-1.983 C -51.229,-41.877 -12.253,-13.405 0,0" /></g><g
           transform="translate(166.973,209.5379)"
           id="g40"><path
             id="path42"
             style="fill:#4dc1b5;fill-opacity:1;fill-rule:nonzero;stroke:none"
             d="M 0,0 C 2.34,0.602 6.169,6.999 6.169,6.999 4.68,6.88 -1.595,13.233 -1.595,13.233 -2.34,11.629 -7.764,8.02 -7.87,5.815 -7.976,3.609 -2.34,-0.602 0,0" /></g><g
           transform="translate(159.8475,198.4732)"
           id="g44"><path
             id="path46"
             style="fill:#4dc1b5;fill-opacity:1;fill-rule:nonzero;stroke:none"
             d="m 0,0 c 1.595,0.364 6.274,5.751 6.274,5.751 0,0 2.979,-3.91 6.488,-5.113 3.51,-1.203 6.275,3.509 7.022,4.198 0.747,0.688 4.89,4.825 1.806,4.424 -3.085,-0.401 -7.658,5.213 -7.658,5.213 -0.213,-1.504 -6.487,-7.017 -7.658,-7.247 -1.171,-0.229 -7.657,6.746 -7.657,6.746 0,0 -7.976,-7.318 -7.657,-8.521 C -8.721,4.248 -1.595,-0.364 0,0" /></g><g
           transform="translate(105.9268,144.0735)"
           id="g48"><path
             id="path50"
             style="fill:#4dc1b5;fill-opacity:1;fill-rule:nonzero;stroke:none"
             d="m 0,0 c 0,0 -8.083,-5.614 -8.721,-7.018 0,0 -3.829,6.416 -5.318,6.617 -1.489,0.201 -9.997,-6.617 -9.997,-6.617 0,0 4.467,-7.017 7.658,-6.616 3.19,0.401 7.657,4.411 7.657,4.411 0,0 4.467,-4.043 7.445,-4.428 2.73,-0.352 8.319,5.853 9.229,6.886 C 7.032,-6.397 3.631,-4.792 0,0" /></g><g
           transform="translate(139.3214,168.9638)"
           id="g52"><path
             id="path54"
             style="fill:#3e3f7e;fill-opacity:1;fill-rule:nonzero;stroke:none"
             d="M 0,0 C 0,0 5.956,-4.439 5.105,-8.449 4.254,-12.459 2.552,-13.774 -0.851,-13.217 -4.254,-12.66 -9.784,-8.594 0,0 m 7.87,-14.665 c 2.127,1.604 1.276,10.026 1.276,10.026 0,0 12.821,-3.008 12.763,-7.219 C 21.843,-16.576 7.87,-14.665 7.87,-14.665 m -5.105,-8.02 c 0,0 20.207,-2.606 22.547,6.015 2.34,8.622 -1.914,13.95 -5.318,15.096 -3.403,1.145 -20.207,7.561 -18.718,13.777 1.489,6.215 5.743,4.812 7.445,1.002 1.702,-3.809 5.105,-9.524 9.997,-9.975 2.446,-0.225 5.105,0.263 7.418,1.41 2.313,1.147 4.281,2.951 5.344,5.357 0,0 8.284,-7.888 15.102,0.602 6.819,8.489 1.915,18.647 0,19.248 -0.478,0.15 -5.902,-6.616 -5.902,-6.616 0,0 4.307,-4.211 2.074,-7.519 -2.234,-3.309 -8.711,1.353 -7.785,3.909 0.925,2.557 0.446,5.264 -2.106,1.655 -2.553,-3.609 -5.424,-7.97 -11.646,-8.271 -6.221,-0.301 -6.7,4.361 -8.933,8.421 C 10.05,25.486 4.786,26.976 0.16,21.419 -4.467,15.862 -6.542,6.99 -3.67,4.433 c 0,0 -10.93,-15.501 -2.233,-24.06 0,0 -13.719,-8.271 -14.836,7.068 0,0 9.572,0.752 10.37,8.421 0.797,7.669 2.074,10.677 -0.958,13.684 -3.031,3.008 -14.517,9.624 -12.124,18.948 2.393,9.323 -6.221,-2.707 -6.221,-7.519 0,-4.812 -1.09,-8.974 9.252,-15.791 10.343,-6.816 3.031,-9.021 0.638,-9.021 -1.905,0 -9.448,3.121 -13.028,8.953 0.346,2.817 0.077,5.293 -0.851,7.373 -0.929,2.084 -6.221,7.547 -6.221,7.547 h 0.704 2.582 c 0.428,0 0.638,0.886 0.329,1.165 l -10.076,9.323 c -1.835,-6.767 -1.59,-10.553 -1.59,-10.553 9.891,-14.136 8.21,-14.835 8.21,-14.835 -3.923,-10.641 -44.574,-36.084 -60.8,-45.71 -0.642,-0.381 -0.164,-1.293 0.554,-1.061 15.021,4.848 31.477,13.887 31.477,13.887 0,0 16.007,10.75 22.867,15.562 5.551,3.894 8.28,6.657 10.135,9.721 1.216,-3.53 5.967,-10.567 12.092,-10.752 0,0 -0.201,-1.722 -0.038,-4.088 0.156,-2.254 0.641,-5.091 1.949,-7.59 l 0.004,0.005 c 0,0 3.973,-8.814 14.006,-4.887 2.893,1.132 6.29,3.322 10.242,7.092" /></g><g
           transform="translate(258.4628,181.1461)"
           id="g56"><path
             id="path58"
             style="fill:#3e3f7e;fill-opacity:1;fill-rule:nonzero;stroke:none"
             d="m 0,0 c -0.488,1.725 -6.214,21.944 -2.266,29.459 0.081,0.155 -0.038,0.334 -0.204,0.407 -0.168,0.072 -0.366,0.022 -0.471,-0.12 -6.875,-9.267 -11.167,-12.852 -4.318,-31.73 6.347,-17.493 11.274,-30.052 -14.676,-44.312 0,0 9.857,2.108 19.569,9.223 C 11.332,-27.036 3.846,-13.591 0,0" /></g><g
           transform="translate(233.8288,200.4927)"
           id="g60"><path
             id="path62"
             style="fill:#3e3f7e;fill-opacity:1;fill-rule:nonzero;stroke:none"
             d="m 0,0 c 3.925,-6.074 0.941,-9.222 0.833,-11.111 -0.009,-0.159 7,5.638 0.875,14.693 -0.16,0.237 0.09,0.533 0.408,0.57 2.111,0.244 9.325,1.639 17.282,9.576 7.381,7.361 11.91,0.648 12.346,-2.996 C 32.265,6.379 30.982,2.484 29,-1.079 c -0.27,-0.486 0.528,-0.873 0.877,-0.425 2.957,3.805 6.253,9.332 5.738,14.602 -0.91,9.31 -7.917,12.447 -12.169,10.686 -7.487,-3.103 -9.625,-9.61 -20.397,-11.053 -7.583,-1.017 -11.108,-0.285 -12.356,0.121 -0.298,0.097 -0.622,-0.058 -0.678,-0.325 -0.307,-1.472 -1.01,-6.67 0.174,-7.664 C -8.352,3.639 -2.23,3.451 0,0" /></g></g></g><text
       id="text66"
       style="font-variant:normal;font-weight:600;font-stretch:normal;font-size:16.20459938px;font-family:'Segoe UI Semibold';-inkscape-font-specification:SegoeUI-SemiBold;writing-mode:lr-tb;fill:#4dc1b5;fill-opacity:1;fill-rule:nonzero;stroke:none"
       transform="matrix(1,0,0,-0.94263357,38.5674,70.4775)"><tspan
         id="tspan64"
         y="0"
         x="0 10.063057 19.510338 23.739738 29.5896 39.03688 45.032585 53.491386 57.720787 62.177052 75.497231 79.953499 88.347481 98.110748 107.56776 115.18391 123.64272 129.49258 133.72198 143.39613 152.84341 161.30222 165.53162 169.98787 174.67101 184.11829 191.10246 196.95233 201.18173 207.03159 216.47887 222.23961">Cultural &amp; Educational Institute</tspan></text>
<text
       id="text70"
       style="font-variant:normal;font-weight:bold;font-stretch:normal;font-size:29.5340004px;font-family:'Bw Modelica';-inkscape-font-specification:BwModelica-Bold;writing-mode:lr-tb;fill:#3e3f7e;fill-opacity:1;fill-rule:nonzero;stroke:none"
       transform="matrix(1,0,0,-0.99818514,38.8101,88.6553)"><tspan
         id="tspan68"
         y="0"
         x="0 20.555664 41.111328 61.253517 81.691048 100.88815 108.18304 126.13972 151.7457 174.13246 199.73845 209.10072">AVAYE SHAHIR</tspan></text>
</g></svg>