<?xml version="1.0" encoding="UTF-8" ?>
<!DOCTYPE svg PUBLIC "-//W3C//DTD SVG 1.1//EN" "http://www.w3.org/Graphics/SVG/1.1/DTD/svg11.dtd">
<svg width="514pt" height="514pt" viewBox="0 0 514 514" version="1.1" xmlns="http://www.w3.org/2000/svg">
<g id="#2196f3ff">
<path fill="#2196f3" opacity="1.00" d=" M 231.52 1.85 C 258.63 -0.76 286.15 0.80 312.75 6.75 C 358.83 16.97 402.01 40.21 435.67 73.33 C 479.85 115.82 507.73 174.82 512.44 235.93 C 516.68 284.26 506.49 333.69 483.79 376.57 C 464.41 413.34 435.85 445.17 401.60 468.68 C 351.75 503.01 289.42 518.67 229.30 511.85 C 187.06 507.50 146.12 492.00 111.20 467.90 C 81.90 447.55 56.80 421.12 38.21 390.65 C 13.50 350.42 0.27 303.21 0.65 256.00 C 0.70 207.55 15.00 159.19 41.29 118.47 C 74.21 67.17 125.85 28.11 184.46 11.09 C 199.80 6.50 215.60 3.52 231.52 1.85 M 243.43 79.43 C 220.95 101.96 198.39 124.41 175.94 146.98 C 198.19 169.43 220.63 191.69 242.95 214.08 C 249.80 220.84 261.38 221.61 269.19 216.07 C 278.13 210.14 280.99 196.82 274.95 187.86 C 269.94 180.54 262.28 175.50 256.97 168.42 C 288.61 167.80 319.80 184.36 337.82 210.24 C 349.60 226.99 356.12 247.50 355.67 268.01 C 355.76 288.56 348.58 308.87 336.59 325.47 C 324.56 342.09 307.04 354.62 287.53 360.89 C 272.06 366.13 255.30 366.82 239.26 364.23 C 216.73 359.83 195.61 347.80 181.04 329.97 C 157.50 302.21 151.56 260.95 166.41 227.70 C 169.07 220.14 175.18 214.02 176.26 205.89 C 177.84 195.21 170.34 184.14 159.88 181.55 C 152.35 179.25 143.70 181.63 138.22 187.23 C 134.08 191.64 131.44 197.18 128.67 202.50 C 119.15 221.18 113.89 242.05 113.37 263.00 C 112.22 302.63 128.11 342.67 156.93 370.05 C 183.55 396.10 220.71 411.21 258.00 410.66 C 296.23 410.50 334.24 394.37 360.56 366.57 C 385.78 340.40 400.67 304.39 400.65 268.00 C 400.99 229.35 385.09 190.67 357.06 163.95 C 331.16 138.56 295.30 123.76 259.05 123.26 C 263.80 116.74 270.95 112.27 275.28 105.39 C 279.15 99.09 279.12 90.80 275.32 84.48 C 269.55 73.20 252.39 70.47 243.43 79.43 Z" />
</g>
</svg>
