<?xml version="1.0" encoding="iso-8859-1"?>
<!-- Generator: Adobe Illustrator 19.1.0, SVG Export Plug-In . SVG Version: 6.00 Build 0)  -->
<svg version="1.1" id="Capa_1" xmlns="http://www.w3.org/2000/svg" xmlns:xlink="http://www.w3.org/1999/xlink" x="0px" y="0px"
	 viewBox="0 0 31.107 31.107" style="enable-background:new 0 0 31.107 31.107;" xml:space="preserve">
<g>
	<path style="fill:#89a404;" d="M22.774,31.107h-8.313c-5.382,0-9.761-4.379-9.761-9.761V3.633C4.7,1.63,6.33,0,8.333,0
		c2.003,0,3.633,1.63,3.633,3.633v7.952h8.56c2.003,0,3.633,1.63,3.633,3.633c0,2.003-1.63,3.633-3.633,3.633h-8.56v2.496
		c0,1.376,1.119,2.495,2.495,2.495h8.313c2.003,0,3.633,1.63,3.633,3.633S24.777,31.107,22.774,31.107z M8.333,1.774
		c-1.024,0-1.858,0.834-1.858,1.858v17.714c0,4.403,3.583,7.985,7.986,7.985h8.313c1.024,0,1.858-0.833,1.858-1.857
		s-0.833-1.858-1.858-1.858h-8.313c-2.354,0-4.271-1.915-4.271-4.269v-3.383c0-0.49,0.397-0.888,0.888-0.888h9.447
		c1.024,0,1.857-0.833,1.857-1.858c0-1.024-0.833-1.857-1.857-1.857h-9.447c-0.49,0-0.888-0.398-0.888-0.888v-8.84
		C10.19,2.608,9.357,1.774,8.333,1.774z"/>
</g>
<g>
</g>
<g>
</g>
<g>
</g>
<g>
</g>
<g>
</g>
<g>
</g>
<g>
</g>
<g>
</g>
<g>
</g>
<g>
</g>
<g>
</g>
<g>
</g>
<g>
</g>
<g>
</g>
<g>
</g>
</svg>
